<svg width="24" height="24" viewBox="0 0 16 16" xmlns="http://www.w3.org/2000/svg">
	<path
		d="M13.54 2.9a13.2 13.2 0 0 0-3.25-1 0.05 0.05 0 0 0-0.05 0.02C10.1 2.17 9.94 2.5 9.83 2.75a12.2 12.2 0 0 0-3.66 0 8 8 0 0 0-0.41-0.83 0.05 0.05 0 0 0-0.05-0.02c-1.13 0.19-2.22 0.53-3.26 1a0.04 0.04 0 0 0-0.02 0.03c-2.07 3.1-2.64 6.12-2.36 9.1l0.02 0.04a13.3 13.3 0 0 0 4 2.02 0.05 0.05 0 0 0 0.05-0.02q0.46-0.63 0.82-1.33a0.05 0.05 0 0 0-0.01-0.06H4.93a9 9 0 0 1-1.25-0.6A0.05 0.05 0 0 1 3.66 12l0.01-0.02 0.25-0.2a0.05 0.05 0 0 1 0.05 0c2.62 1.2 5.46 1.2 8.04 0a0.05 0.05 0 0 1 0.06 0l0.25 0.2a0.05 0.05 0 0 1 0 0.09 8 8 0 0 1-1.26 0.59 0.05 0.05 0 0 0-0.03 0.03 0.05 0.05 0 0 0 0 0.04c0.25 0.47 0.52 0.91 0.82 1.33a0.05 0.05 0 0 0 0.06 0.02 13.2 13.2 0 0 0 4-2.02 0.05 0.05 0 0 0 0.02-0.04c0.34-3.45-0.56-6.45-2.36-9.1a0.03 0.03 0 0 0-0.02-0.02m-8.2 7.3c-0.8 0-1.44-0.72-1.44-1.6s0.64-1.62 1.44-1.62c0.8 0 1.45 0.73 1.44 1.61 0 0.89-0.64 1.61-1.44 1.61m5.31 0c-0.78 0-1.43-0.72-1.43-1.6s0.63-1.62 1.43-1.62c0.81 0 1.45 0.73 1.44 1.61 0 0.89-0.63 1.61-1.44 1.61"
		fill="#FFFFFF" />
</svg>
